<svg width="32" height="32" viewBox="0 0 32 32" fill="none" xmlns="http://www.w3.org/2000/svg">
    <path d="M12.1664 17.6681L12.8375 18.0028L12.1664 17.6681ZM7.55978 13.0552L7.22372 12.3847H7.22372L7.55978 13.0552ZM9.42144 12.0646L9.95241 12.5943L9.42144 12.0646ZM15.4205 6.12387L15.0845 5.45338L15.4205 6.12387ZM15.1606 6.31161L14.6297 5.78192L15.1606 6.31161ZM18.7698 5.21271L18.2387 5.74221L18.7698 5.21271ZM17.6135 5.02472L17.9496 5.69521L17.6135 5.02472ZM20.1776 7.58999L20.8487 7.92476L20.1776 7.58999ZM19.9909 6.43764L20.5221 5.90814L19.9909 6.43764ZM18.8918 10.053L18.3608 9.52331L18.8918 10.053ZM19.0787 9.7931L18.4075 9.45834L19.0787 9.7931ZM23.4717 22.0358L23.47 22.7858L23.4717 22.0358ZM25.9969 23.0422L25.2469 23.0399L25.9969 23.0422ZM24.9991 22.0391L25.0007 21.2891L24.9991 22.0391ZM25.9878 26.0031L25.2378 26.0008L25.9878 26.0031ZM13.6834 22.0145L13.6818 22.7645L13.6834 22.0145ZM17.1786 16.5984L17.9231 16.5073L17.1786 16.5984ZM16.5502 17.5907L16.8907 18.259L16.5502 17.5907ZM18.3821 12.1939L18.9203 11.6715L18.3821 12.1939ZM18.3297 10.6164L17.7987 10.0867L18.3297 10.6164ZM12.9653 16.0663L13.6365 16.401L12.9653 16.0663ZM8.00217 22.0022L8.00054 22.7522L8.00217 22.0022ZM20.9623 17.8052L20.5586 18.4373L20.9623 17.8052ZM20.3793 16.8806L21.1267 16.819L20.3793 16.8806ZM14.7224 14.2324L14.1914 13.7027L14.7224 14.2324ZM15.9095 14.1376L16.4034 13.5732L15.9095 14.1376ZM14.1914 13.7027L12.6213 15.2767L13.6832 16.3361L15.2534 14.7621L14.1914 13.7027ZM17.9231 16.5073C17.7894 15.4152 17.3316 14.3855 16.4034 13.5732L15.4156 14.7019C16.0287 15.2385 16.339 15.9115 16.4342 16.6895L17.9231 16.5073ZM16.2097 16.9224C14.5237 17.7815 13.3662 19.5352 13.3662 21.5605H14.8662C14.8662 20.121 15.6876 18.872 16.8907 18.259L16.2097 16.9224ZM13.6851 21.2645L8.0038 21.2522L8.00054 22.7522L13.6818 22.7645L13.6851 21.2645ZM6.25 23.0022V26H7.75V23.0022H6.25ZM8 27.75H24.9878V26.25H8V27.75ZM26.7378 26.0054L26.7469 23.0445L25.2469 23.0399L25.2378 26.0008L26.7378 26.0054ZM25.0007 21.2891L23.4733 21.2858L23.47 22.7858L24.9975 22.7891L25.0007 21.2891ZM23.7715 21.5605C23.7715 19.7157 22.8108 18.0959 21.366 17.1731L20.5586 18.4373C21.5902 19.0961 22.2715 20.249 22.2715 21.5605H23.7715ZM17.844 12.7163C18.9663 13.8724 19.4989 15.3313 19.6318 16.9423L21.1267 16.819C20.9725 14.9489 20.3394 13.1333 18.9203 11.6715L17.844 12.7163ZM18.3608 9.52331L17.7987 10.0867L18.8607 11.1461L19.4227 10.5827L18.3608 9.52331ZM19.5064 7.25523L18.4075 9.45834L19.7498 10.1279L20.8487 7.92476L19.5064 7.25523ZM18.2387 5.74221L19.4598 6.96714L20.5221 5.90814L19.301 4.68321L18.2387 5.74221ZM15.7566 6.79437L17.9496 5.69521L17.2775 4.35422L15.0845 5.45338L15.7566 6.79437ZM9.95241 12.5943L15.6916 6.84131L14.6297 5.78192L8.89048 11.5349L9.95241 12.5943ZM7.89584 13.7257L9.49762 12.9229L8.8255 11.5819L7.22372 12.3847L7.89584 13.7257ZM11.0945 17.3982L7.83084 14.1257L6.76874 15.1849L10.0324 18.4575L11.0945 17.3982ZM12.2942 15.7315L11.4952 17.3333L12.8375 18.0028L13.6365 16.401L12.2942 15.7315ZM10.0324 18.4575C10.8771 19.3044 12.3036 19.0732 12.8375 18.0028L11.4952 17.3333C11.4189 17.4862 11.2152 17.5192 11.0945 17.3982L10.0324 18.4575ZM7.22372 12.3847C6.15739 12.9191 5.92647 14.3404 6.76874 15.1849L7.83084 14.1257C7.71051 14.0051 7.7435 13.802 7.89584 13.7257L7.22372 12.3847ZM8.89048 11.5349C8.87148 11.554 8.84954 11.5698 8.8255 11.5819L9.49762 12.9229C9.6659 12.8385 9.81947 12.7276 9.95241 12.5943L8.89048 11.5349ZM15.0845 5.45338C14.9162 5.53772 14.7626 5.64866 14.6297 5.78192L15.6916 6.84131C15.7106 6.82227 15.7325 6.80642 15.7566 6.79437L15.0845 5.45338ZM19.301 4.68321C18.768 4.1486 17.9524 4.01598 17.2775 4.35422L17.9496 5.69521C18.046 5.64689 18.1625 5.66584 18.2387 5.74221L19.301 4.68321ZM20.8487 7.92476C21.1842 7.25216 21.0527 6.44045 20.5221 5.90814L19.4598 6.96714C19.5356 7.04318 19.5544 7.15914 19.5064 7.25523L20.8487 7.92476ZM19.4227 10.5827C19.5555 10.4496 19.6659 10.2961 19.7498 10.1279L18.4075 9.45834C18.3955 9.48237 18.3798 9.50431 18.3608 9.52331L19.4227 10.5827ZM23.4733 21.2858C23.5718 21.286 23.6526 21.3308 23.7009 21.3829C23.7467 21.4322 23.7715 21.495 23.7715 21.5605H22.2715C22.2715 22.1765 22.7526 22.7842 23.47 22.7858L23.4733 21.2858ZM26.7469 23.0445C26.7499 22.0774 25.9678 21.2912 25.0007 21.2891L24.9975 22.7891C25.1356 22.7894 25.2473 22.9017 25.2469 23.0399L26.7469 23.0445ZM24.9878 27.75C25.9522 27.75 26.7348 26.9698 26.7378 26.0054L25.2378 26.0008C25.2374 26.1386 25.1256 26.25 24.9878 26.25V27.75ZM6.25 26C6.25 26.9665 7.0335 27.75 8 27.75V26.25C7.86193 26.25 7.75 26.1381 7.75 26H6.25ZM13.3662 21.5605C13.3662 21.439 13.466 21.264 13.6851 21.2645L13.6818 22.7645C14.3883 22.7661 14.8662 22.1695 14.8662 21.5605H13.3662ZM16.4342 16.6895C16.4348 16.6949 16.4381 16.7148 16.4074 16.7599C16.3728 16.8108 16.306 16.8734 16.2097 16.9224L16.8907 18.259C17.4285 17.9849 18.0284 17.3677 17.9231 16.5073L16.4342 16.6895ZM18.9203 11.6715C18.8354 11.5841 18.7896 11.4704 18.7846 11.3667C18.7798 11.2681 18.8107 11.1962 18.8607 11.1461L17.7987 10.0867C17.0261 10.8612 17.1899 12.0425 17.844 12.7163L18.9203 11.6715ZM12.6213 15.2767C12.4885 15.4097 12.3781 15.5633 12.2942 15.7315L13.6365 16.401C13.6485 16.377 13.6642 16.3551 13.6832 16.3361L12.6213 15.2767ZM8.0038 21.2522C7.03582 21.2501 6.25 22.0342 6.25 23.0022H7.75C7.75 22.8639 7.86226 22.7519 8.00054 22.7522L8.0038 21.2522ZM21.366 17.1731C21.2118 17.0746 21.1363 16.9356 21.1267 16.819L19.6318 16.9423C19.6852 17.5894 20.0669 18.1232 20.5586 18.4373L21.366 17.1731ZM15.2534 14.7621C15.2977 14.7176 15.3479 14.6988 15.3812 14.6955C15.3963 14.6941 15.4046 14.696 15.4073 14.6968C15.4088 14.6973 15.4109 14.6979 15.4156 14.7019L16.4034 13.5732C15.6961 12.9541 14.7317 13.1612 14.1914 13.7027L15.2534 14.7621Z" fill="#FFA842"/>
</svg>
