<svg width="26" height="26" viewBox="0 0 26 26" fill="none" xmlns="http://www.w3.org/2000/svg">
    <path d="M13 26C9.8819 26 7.34468 23.4632 7.34468 20.3447V3.82656C7.34468 3.65571 7.39161 3.49579 7.47361 3.35957C7.95017 1.43285 9.69374 0 11.7653 0C14.2028 0 16.186 1.98321 16.186 4.42066V17.1263C16.186 18.8831 14.7568 20.3128 12.9995 20.3128C11.2423 20.3128 9.8131 18.8831 9.8131 17.1263V7.21574C9.8131 6.71276 10.2213 6.30455 10.7243 6.30455C11.2273 6.30455 11.6355 6.71276 11.6355 7.21574V17.1263C11.6355 17.8785 12.2474 18.4904 12.9995 18.4904C13.7513 18.4904 14.3636 17.8785 14.3636 17.1263V4.42066C14.3636 2.9878 13.1977 1.82239 11.7653 1.82239C10.3329 1.82239 9.16707 2.98826 9.16707 4.42066V20.3447C9.16707 22.4582 10.8865 24.1776 13 24.1776C15.114 24.1776 16.8329 22.4582 16.8329 20.3447V7.21483C16.8329 6.71185 17.2412 6.30364 17.7441 6.30364C18.2471 6.30364 18.6553 6.71185 18.6553 7.21483V20.3447C18.6553 23.4632 16.1186 26 13 26Z" fill="#838B98"/>
</svg>
